<?xml version="1.0" standalone="no"?><!DOCTYPE svg PUBLIC "-//W3C//DTD SVG 1.1//EN" "http://www.w3.org/Graphics/SVG/1.1/DTD/svg11.dtd"><svg t="1577859448100" class="icon" viewBox="0 0 1024 1024" version="1.1" xmlns="http://www.w3.org/2000/svg" p-id="1766" width="64" height="64" xmlns:xlink="http://www.w3.org/1999/xlink"><defs><style type="text/css"></style></defs><path d="M556.66157037 649.74696297v-74.88094815c0-40.89931852-53.52106667-66.14281482-89.32314074-19.78216297v94.66311112c0 25.36485925 20.51034075 44.66157037 44.66157037 44.66157036s44.66157037-19.29671111 44.66157037-44.66157036z" p-id="1767" fill="#606266"></path><path d="M745.6237037 182.25682963C743.19644445 85.65191111 664.91733333 7.13007408 568.31241482 7.13007408h-108.74121482c-97.81854815 0-177.55401482 78.52183703-179.98127408 175.12675555h-155.34459259c-42.84112592 0-77.6722963 34.83117037-77.6722963 77.67229629V491.3682963c128.03792592 31.43300741 257.65357037 62.86601482 380.83697779 72.45368888v-13.22856296c0-41.02068148 43.5693037-74.88094815 84.58998518-74.88094814s84.58998518 33.86026667 84.58998518 74.88094814v13.22856296c123.18340741-9.70903703 254.01268148-42.23431111 382.05060741-72.45368888V259.92912592c0-42.84112592-34.83117037-77.6722963-77.67229629-77.67229629h-155.3445926z m-283.62524445-103.8866963h105.10032593c54.37060741 0 94.78447408 50.72971852 100.73125927 103.8866963H357.26222222c4.85451852-53.15697778 50.36562963-103.8866963 104.73623703-103.8866963z" p-id="1768" fill="#606266"></path><path d="M596.58998518 658.24237037c0 41.02068148-43.5693037 74.88094815-84.58998518 74.88094815s-84.58998518-33.86026667-84.58998518-74.88094815v-30.21937778c-123.18340741-9.70903703-252.79905185-41.02068148-382.05060741-72.45368889V939.19762963c0 42.84112592 34.83117037 77.6722963 77.67229629 77.67229629h777.9365926c42.84112592 0 77.6722963-34.83117037 77.67229629-77.67229629V555.5693037c-129.25155555 31.43300741-258.8672 62.86601482-382.05060741 72.45368889v30.21937778z" p-id="1769" fill="#606266"></path></svg>