<?xml version="1.0" standalone="no"?><!DOCTYPE svg PUBLIC "-//W3C//DTD SVG 1.1//EN" "http://www.w3.org/Graphics/SVG/1.1/DTD/svg11.dtd"><svg t="1581580894790" class="icon" viewBox="0 0 1080 1024" version="1.1" xmlns="http://www.w3.org/2000/svg" p-id="2618" width="67.5" height="64" xmlns:xlink="http://www.w3.org/1999/xlink"><defs><style type="text/css"></style></defs><path d="M962.67788469 32H114.58521594A82.58521594 82.58521594 0 0 0 32 114.58521594v603.15623906a82.58521594 82.58521594 0 0 0 82.58521594 82.58521594H962.67788469a82.58521594 82.58521594 0 0 0 82.58521687-82.58521594V114.58521594A82.58521594 82.58521594 0 0 0 962.67788469 32zM554.3833775 684.347135c-139.89814781 0-253.31577562-111.66120937-253.31577562-249.47850469s113.41762687-249.47850469 253.31577562-249.47850562 253.31577562 111.69477094 253.31577562 249.47850562-113.40643969 249.47850469-253.31577562 249.47850469z" p-id="2619" fill="#606266"></path><path d="M479.05876906 283.66004375a75.83922844 75.83922844 0 1 1-75.82804125 75.8392275 75.82804031 75.82804031 0 0 1 75.82804125-75.8392275zM178.57701219 913.68836187h712.63590937c18.88429219 0 34.19981156 13.72691156 34.19981063 30.65341219v17.00481282c0 16.92650156-15.31551937 30.65341312-34.19981063 30.65341312h-712.63590937c-18.88429219 0-34.19981156-13.72691156-34.19981156-30.65341313v-17.02718718c0-16.92650156 15.30433125-30.63103781 34.19981156-30.63103782z" p-id="2620" fill="#606266"></path></svg>