<?xml version="1.0" standalone="no"?><!DOCTYPE svg PUBLIC "-//W3C//DTD SVG 1.1//EN" "http://www.w3.org/Graphics/SVG/1.1/DTD/svg11.dtd"><svg t="1581580889286" class="icon" viewBox="0 0 1024 1024" version="1.1" xmlns="http://www.w3.org/2000/svg" p-id="2297" width="64" height="64" xmlns:xlink="http://www.w3.org/1999/xlink"><defs><style type="text/css"></style></defs><path d="M887.58870386 993.63727908h-751.17740772c-57.44297824 0-106.0485752-48.60559698-106.04857522-110.46726584v-251.86536613h963.27455816v251.86536613c0 61.86166887-48.60559698 110.46726585-106.04857522 110.46726584z m-256.28405675-238.60929422H149.66736803v119.30464711h481.63727908v-119.30464711z m243.02798486 0h-119.30464711v119.30464711h119.30464711v-119.30464711zM30.36272092 136.41129614C30.36272092 74.54962725 78.9683179 25.94403028 136.41129614 25.94403028h751.17740772c57.44297824 0 106.0485752 48.60559698 106.04857522 110.46726586v433.0316821H30.36272092V136.41129614zM224.7851088 467.81309366l88.37381268-150.23548154 203.25976915 136.97940964 110.46726584-172.32893471 216.51584106 123.72333775 48.60559698-88.37381268-300.4709631-190.00369726-101.62988458 176.74762535-220.93453169-119.30464711-132.560719 234.19060359 88.37381266 48.60559697z" p-id="2298" fill="#606266"></path></svg>