<?xml version="1.0" standalone="no"?><!DOCTYPE svg PUBLIC "-//W3C//DTD SVG 1.1//EN" "http://www.w3.org/Graphics/SVG/1.1/DTD/svg11.dtd"><svg t="1581580539969" class="icon" viewBox="0 0 1024 1024" version="1.1" xmlns="http://www.w3.org/2000/svg" p-id="1608" width="64" height="64" xmlns:xlink="http://www.w3.org/1999/xlink"><defs><style type="text/css"></style></defs><path d="M965.70330112 350.05326222l-154.47078002 154.47077888a97.09036999 97.09036999 0 0 1-137.28578332 0l-154.47077888-154.47077888a97.09036999 97.09036999 0 0 1 0-137.28578332l154.47077888-154.47078002a97.09036999 97.09036999 0 0 1 137.28578332 0l154.47078002 154.47078002a97.09036999 97.09036999 0 0 1 0 137.28578332zM342.09185223 997.45185223H123.6385189a97.09036999 97.09036999 0 0 1-97.09037113-97.09037113v-218.45333333a97.09036999 97.09036999 0 0 1 97.09037113-97.09036999h218.45333333a97.09036999 97.09036999 0 0 1 97.09036999 97.09036999v218.45333333a97.09036999 97.09036999 0 0 1-97.09036999 97.09037113z m0-509.72444444H123.6385189a97.09036999 97.09036999 0 0 1-97.09037113-97.09037113v-218.45333333a97.09036999 97.09036999 0 0 1 97.09037113-97.09037h218.45333333a97.09036999 97.09036999 0 0 1 97.09036999 97.09037v218.45333333a97.09036999 97.09036999 0 0 1-97.09036999 97.09037113z m291.27111111 97.09036999h218.45333333a97.09036999 97.09036999 0 0 1 97.09037 97.09036999v218.45333333a97.09036999 97.09036999 0 0 1-97.09037 97.09037113h-218.45333333a97.09036999 97.09036999 0 0 1-97.09037113-97.09037113v-218.45333333a97.09036999 97.09036999 0 0 1 97.09037113-97.09036999z" p-id="1609" fill="#606266"></path></svg>