<?xml version="1.0" standalone="no"?><!DOCTYPE svg PUBLIC "-//W3C//DTD SVG 1.1//EN" "http://www.w3.org/Graphics/SVG/1.1/DTD/svg11.dtd"><svg t="1581580899162" class="icon" viewBox="0 0 1024 1024" version="1.1" xmlns="http://www.w3.org/2000/svg" p-id="2950" width="64" height="64" xmlns:xlink="http://www.w3.org/1999/xlink"><defs><style type="text/css"></style></defs><path d="M977.12355555 560.92444445c-18.77333333 253.38311111-231.65155555 448.28444445-485.71733333 444.64355555-258.61688889-6.82666667-466.71644445-214.69866667-473.88444444-473.31555555-3.64088889-254.17955555 191.14666667-467.28533333 444.64355555-486.28622223 19.22844445-0.68266667 35.38488889 14.336 36.06755556 33.56444445v412.44444444c0 18.31822222 14.67733333 33.22311111 32.99555556 33.56444444h411.648c18.88711111 0 34.24711111 15.24622222 34.2471111 34.13333334v1.25155556z" p-id="2951" fill="#606266"></path><path d="M1006.36444445 405.39022222c-28.44444445-202.18311111-188.64355555-360.33422222-391.168-386.16177777-28.78577778-5.12-56.20622222 13.99466667-61.32622223 42.66666666-0.56888889 2.95822222-0.79644445 5.91644445-0.79644444 8.87466667V428.94222222c0.34133333 19.34222222 16.15644445 34.816 35.49866667 34.816h361.35822222c29.46844445 1.82044445 54.84088889-20.59377778 56.77511111-50.06222222-0.11377778-2.61688889-0.11377778-5.46133333-0.34133333-8.30577778z" p-id="2952" fill="#606266"></path></svg>