<?xml version="1.0" standalone="no"?><!DOCTYPE svg PUBLIC "-//W3C//DTD SVG 1.1//EN" "http://www.w3.org/Graphics/SVG/1.1/DTD/svg11.dtd"><svg t="1592810482883" class="icon" viewBox="0 0 1102 1024" version="1.1" xmlns="http://www.w3.org/2000/svg" p-id="2433" width="68.875" height="64" xmlns:xlink="http://www.w3.org/1999/xlink"><defs><style type="text/css"></style></defs><path d="M1047.63058252 33.80550164H55.13883497c-31.50825245 0-55.13883497 23.62936889-55.13883497 55.13762133v858.58470873c0 31.50825245 23.63058252 55.13883497 55.13883497 55.13883497h992.49174755c31.50825245 0 55.13883497-23.63058252 55.13883496-55.13883497V88.94312297c0-31.50703882-23.63058252-55.13762133-55.13883496-55.13762133zM346.58470875 931.77491912H70.89174755v-189.04708742h275.6929612v189.04708742z m0-252.06237867H70.89174755V490.66666667h275.6929612v189.04708741z m0-252.06116503H70.89174755v-189.04708742h275.6929612v189.04708742z m338.7070388 504.1235437H409.6v-189.04708742h275.69174755v189.04708742z m0-252.06237867H409.6V490.66666667h275.69174755v189.04708741z m0-252.06116503H409.6v-189.04708742h275.69174755v189.04708742z m346.58470875 504.1235437H756.18470875v-189.04708742h275.69174755v189.04708742z m0-252.06237867H756.18470875V490.66666667h275.69174755v189.04708741z m0-252.06116503H756.18470875v-189.04708742h275.69174755v189.04708742z" p-id="2434"></path></svg>