<?xml version="1.0" standalone="no"?><!DOCTYPE svg PUBLIC "-//W3C//DTD SVG 1.1//EN" "http://www.w3.org/Graphics/SVG/1.1/DTD/svg11.dtd"><svg t="1592810487500" class="icon" viewBox="0 0 1024 1024" version="1.1" xmlns="http://www.w3.org/2000/svg" p-id="2659" width="64" height="64" xmlns:xlink="http://www.w3.org/1999/xlink"><defs><style type="text/css"></style></defs><path d="M488.37 960.985c7.876 0 23.63 7.877 23.63 15.753 7.877 7.877 7.877 23.631 0 31.508 0 7.877-15.754 15.754-23.63 15.754H118.153C55.138 1024 0 976.738 0 913.723V110.277C0 47.262 55.138 0 118.154 0h795.57C968.861 0 1024 47.262 1024 110.277v283.57c0 7.876-7.877 23.63-15.754 23.63-7.877 7.877-23.63 7.877-31.508 0-7.876-7.877-15.753-15.754-15.753-23.63v-283.57c0-31.508-23.631-47.262-55.139-47.262H118.154c-31.508 0-55.139 23.631-55.139 47.262v803.446c0 31.508 23.631 47.262 55.139 47.262h370.215zM322.953 181.169H409.6L582.892 614.4h-78.769l-47.261-110.277h-181.17L228.431 614.4h-78.77l173.293-433.23z m-31.508 267.816h141.785l-63.016-189.047-78.769 189.047z m370.216 173.292c-15.754 0-23.631-7.877-31.508-15.754-7.877-7.877-7.877-23.63 0-31.508 7.877-7.877 15.754-15.753 23.63-15.753h315.078c7.876 0 23.63 7.876 23.63 15.753 7.877 7.877 7.877 23.631 0 31.508-7.877 7.877-15.754 15.754-23.63 15.754h-307.2z m0 181.17c-23.631 0-31.508-15.755-31.508-31.509s15.754-31.507 31.508-31.507h315.076c15.754 0 31.508 15.754 31.508 31.507s-15.754 31.508-31.508 31.508H661.662z m0 181.168c-7.877 0-23.631-7.877-23.631-15.753s-15.754-23.631-7.877-31.508c7.877-7.877 15.754-15.754 23.63-15.754h315.078c7.876 0 23.63 7.877 23.63 15.754 7.877 7.877 7.877 23.63 0 31.508s-15.754 15.753-23.63 15.753h-307.2z" p-id="2660"></path><path d="M488.37 960.985c7.876 0 23.63 7.877 23.63 15.753 7.877 7.877 7.877 23.631 0 31.508 0 7.877-15.754 15.754-23.63 15.754H118.153C55.138 1024 0 976.738 0 913.723V110.277C0 47.262 55.138 0 118.154 0h795.57C968.861 0 1024 47.262 1024 110.277v283.57c0 7.876-7.877 23.63-15.754 23.63-7.877 7.877-23.63 7.877-31.508 0-7.876-7.877-15.753-15.754-15.753-23.63v-283.57c0-31.508-23.631-47.262-55.139-47.262H118.154c-31.508 0-55.139 23.631-55.139 47.262v803.446c0 31.508 23.631 47.262 55.139 47.262h370.215zM322.953 181.169H409.6L582.892 614.4h-78.769l-47.261-110.277h-181.17L228.431 614.4h-78.77l173.293-433.23z m-31.508 267.816h141.785l-63.016-189.047-78.769 189.047z m370.216 173.292c-15.754 0-23.631-7.877-31.508-15.754-7.877-7.877-7.877-23.63 0-31.508 7.877-7.877 15.754-15.753 23.63-15.753h315.078c7.876 0 23.63 7.876 23.63 15.753 7.877 7.877 7.877 23.631 0 31.508-7.877 7.877-15.754 15.754-23.63 15.754h-307.2z m0 181.17c-23.631 0-31.508-15.755-31.508-31.509s15.754-31.507 31.508-31.507h315.076c15.754 0 31.508 15.754 31.508 31.507s-15.754 31.508-31.508 31.508H661.662z m0 181.168c-7.877 0-23.631-7.877-23.631-15.753s-15.754-23.631-7.877-31.508c7.877-7.877 15.754-15.754 23.63-15.754h315.078c7.876 0 23.63 7.877 23.63 15.754 7.877 7.877 7.877 23.63 0 31.508s-15.754 15.753-23.63 15.753h-307.2z" p-id="2661"></path></svg>