<?xml version="1.0" standalone="no"?><!DOCTYPE svg PUBLIC "-//W3C//DTD SVG 1.1//EN" "http://www.w3.org/Graphics/SVG/1.1/DTD/svg11.dtd"><svg t="1592810474892" class="icon" viewBox="0 0 1024 1024" version="1.1" xmlns="http://www.w3.org/2000/svg" p-id="2115" width="64" height="64" xmlns:xlink="http://www.w3.org/1999/xlink"><defs><style type="text/css"></style></defs><path d="M442.28582717 619.48839508H90.02982717c-28.672 0-52.22400001-23.55200001-52.224-52.22400001V57.31239507c0-28.672 23.55200001-52.22400001 52.224-52.22400001h351.74400001c28.672 0 52.22400001 23.55200001 52.22399999 52.22400001V567.26439507c0 28.672-23.04 52.22400001-51.712 52.22400001z m-352.256-568.32000001c-3.07200001 0-6.144 2.56-6.144 6.144V567.26439507c0 3.07200001 2.56 6.144 6.144 6.144h351.74400001c3.07200001 0 6.144-2.56 6.144-6.144V57.31239507c0-3.07200001-2.56-6.144-6.144-6.144H90.02982717zM954.79782717 1016.80039508H602.54182717c-28.672 0-52.22400001-23.55200001-52.22400002-52.22400001V454.11239507c0-28.672 23.55200001-52.22400001 52.22400002-52.224h351.744c28.672 0 52.22400001 23.55200001 52.224 52.224v510.464c0 28.672-23.04 52.22400001-51.712 52.22400001zM602.54182717 448.48039507c-3.07200001 0-6.144 2.56-6.144 6.144v510.464c0 3.07200001 2.56 6.144 6.144 6.144h351.744c3.07200001 0 6.144-2.56 6.144-6.144V454.11239507c0-3.07200001-2.56-6.144-6.144-6.144H602.54182717zM960.94182717 335.32839507h-364.544c-28.672 0-52.22400001-23.55200001-52.22400002-52.224V57.31239507c0-28.672 23.55200001-52.22400001 52.22400002-52.22400001H960.94182717c28.672 0 52.22400001 23.55200001 52.22400001 52.22400001v226.30400001c0 28.16-23.55200001 51.712-52.22400001 51.71199999z m-364.544-284.16c-3.07200001 0-6.144 2.56-6.144 6.144v226.30400001c0 3.07200001 2.56 6.144 6.144 6.14399998H960.94182717c3.07200001 0 6.144-2.56 6.144-6.144V57.31239507c0-3.07200001-2.56-6.144-6.144-6.144h-364.544zM448.42982717 1013.72839507H83.88582717c-28.672 0-52.22400001-23.55200001-52.224-52.22400001v-226.30399999c0-28.672 23.55200001-52.22400001 52.224-52.22400001h364.544c28.672 0 52.22400001 23.55200001 52.224 52.22400001V961.50439508c0 28.672-23.55200001 52.22400001-52.224 52.22399999z m-364.544-284.16c-3.07200001 0-6.144 2.56-6.144 6.144V961.50439508c0 3.07200001 2.56 6.144 6.144 6.14399998h364.544c3.07200001 0 6.144-2.56 6.144-6.144v-226.30399999c0-3.07200001-2.56-6.144-6.144-6.144H83.88582717z" fill="#606266" p-id="2116"></path></svg>