<?xml version="1.0" standalone="no"?><!DOCTYPE svg PUBLIC "-//W3C//DTD SVG 1.1//EN" "http://www.w3.org/Graphics/SVG/1.1/DTD/svg11.dtd"><svg t="1577859527225" class="icon" viewBox="0 0 1024 1024" version="1.1" xmlns="http://www.w3.org/2000/svg" p-id="3348" width="64" height="64" xmlns:xlink="http://www.w3.org/1999/xlink"><defs><style type="text/css"></style></defs><path d="M407.62785185 110.89540741h208.7442963c28.15620741 0 50.97244445-22.81623703 50.97244444-50.97244444s-22.81623703-50.97244445-50.97244444-50.97244445H407.62785185c-28.15620741 0-50.97244445 22.81623703-50.97244444 50.97244445s22.81623703 50.97244445 50.97244444 50.97244444z" p-id="3349" fill="#606266"></path><path d="M881.06477037 45.11668148H757.03182222c0.84954075 4.85451852 1.33499259 9.70903703 1.3349926 14.80628149 0 44.66157037-36.16616297 80.82773333-80.82773334 80.82773333H346.46091852c-44.66157037 0-80.82773333-36.16616297-80.82773334-80.82773333 0-5.09724445 0.48545185-9.95176297 1.3349926-14.80628149H142.93522963c-53.64242963 0-97.09037037 43.44794075-97.09037038 97.09037037v775.75205926c0 53.64242963 43.44794075 97.09037037 97.09037038 97.09037037h738.12954074c53.64242963 0 97.09037037-43.44794075 97.09037038-97.09037037V142.20705185c0-53.64242963-43.44794075-97.09037037-97.09037038-97.09037037z m-681.08894815 792.50014815c-26.82121482 0-48.54518518-21.72397037-48.54518519-48.54518518s21.72397037-48.54518518 48.54518519-48.5451852 48.54518518 21.72397037 48.54518519 48.5451852-21.72397037 48.54518518-48.54518519 48.54518518z m0-214.20562963c-26.82121482 0-48.54518518-21.72397037-48.54518519-48.54518518s21.72397037-48.54518518 48.54518519-48.54518519 48.54518518 21.72397037 48.54518519 48.54518519-21.72397037 48.54518518-48.54518519 48.54518518z m0-214.08426667c-26.82121482 0-48.54518518-21.72397037-48.54518519-48.54518518s21.72397037-48.54518518 48.54518519-48.54518518 48.54518518 21.72397037 48.54518519 48.54518518-21.72397037 48.54518518-48.54518519 48.54518518z m346.12717037 404.0173037H352.16497778c-13.34992592 0-24.27259259-10.92266667-24.2725926-24.27259258s10.92266667-24.27259259 24.2725926-24.2725926h193.93801481c13.34992592 0 24.27259259 10.92266667 24.27259259 24.2725926s-10.92266667 24.27259259-24.27259259 24.27259258z m0-214.20562962H352.16497778c-13.34992592 0-24.27259259-10.92266667-24.2725926-24.27259259s10.92266667-24.27259259 24.2725926-24.2725926h193.93801481c13.34992592 0 24.27259259 10.92266667 24.27259259 24.2725926s-10.92266667 24.27259259-24.27259259 24.27259259z m250.12906666 123.18340741v192.48165926c0 11.28675555-9.10222222 20.38897778-19.6608 19.6608h-65.77872592c-10.55857778 0.60681482-19.6608-8.49540741-19.6608-19.6608V722.32201482c-44.78293333-19.6608-76.3373037-65.17191111-76.3373037-116.9938963 0-55.94832592 36.40888889-103.64397037 86.1677037-121.12023704v121.84841482h85.43952592V484.20788148c49.75881482 17.47626667 86.1677037 65.05054815 86.16770372 121.12023704 0 51.70062222-31.55437037 97.3330963-76.33730372 116.9938963z m52.06471112-337.26767407H352.16497778c-13.34992592 0-24.27259259-10.92266667-24.2725926-24.2725926s10.92266667-24.27259259 24.2725926-24.2725926h496.13179259c13.34992592 0 24.27259259 10.92266667 24.2725926 24.2725926s-10.92266667 24.27259259-24.2725926 24.2725926z" p-id="3350" fill="#606266"></path></svg>