<?xml version="1.0" standalone="no"?><!DOCTYPE svg PUBLIC "-//W3C//DTD SVG 1.1//EN" "http://www.w3.org/Graphics/SVG/1.1/DTD/svg11.dtd"><svg t="1577859562539" class="icon" viewBox="0 0 1024 1024" version="1.1" xmlns="http://www.w3.org/2000/svg" p-id="3981" width="64" height="64" xmlns:xlink="http://www.w3.org/1999/xlink"><defs><style type="text/css"></style></defs><path d="M165.26601482 147.91111111v104.00805926c0 4.61179259-1.69908148 8.73813333-5.09724445 12.1362963-3.39816297 3.39816297-7.5245037 5.09724445-12.13629629 5.09724444h-104.00805926c-4.61179259 0-8.73813333-1.69908148-12.1362963-5.09724444s-5.09724445-7.5245037-5.09724444-12.1362963V147.91111111c0-4.61179259 1.69908148-8.73813333 5.09724444-12.13629629 3.39816297-3.39816297 7.5245037-5.09724445 12.1362963-5.09724445H147.91111111c4.61179259 0 8.73813333 1.69908148 12.1362963 5.09724445 3.51952592 3.39816297 5.21860741 7.5245037 5.21860741 12.13629629z m0 208.13748148v104.00805926c0 4.61179259-1.69908148 8.73813333-5.09724445 12.1362963-3.39816297 3.39816297-7.5245037 5.09724445-12.13629629 5.09724444h-104.00805926c-4.61179259 0-8.73813333-1.69908148-12.1362963-5.09724444s-5.09724445-7.5245037-5.09724444-12.1362963v-104.00805926c0-4.61179259 1.69908148-8.73813333 5.09724444-12.13629629 3.39816297-3.39816297 7.5245037-5.09724445 12.1362963-5.09724445H147.91111111c4.61179259 0 8.73813333 1.69908148 12.1362963 5.09724445 3.51952592 3.2768 5.21860741 7.40314075 5.21860741 12.13629629z m0 208.01611852v104.00805926c0 4.61179259-1.69908148 8.73813333-5.09724445 12.1362963-3.39816297 3.39816297-7.5245037 5.09724445-12.13629629 5.09724444h-104.00805926c-4.61179259 0-8.73813333-1.69908148-12.1362963-5.09724444s-5.09724445-7.5245037-5.09724444-12.1362963v-104.00805926c0-4.61179259 1.69908148-8.73813333 5.09724444-12.13629629s7.5245037-5.09724445 12.1362963-5.09724445H147.91111111c4.61179259 0 8.73813333 1.69908148 12.1362963 5.09724445 3.51952592 3.39816297 5.21860741 7.40314075 5.21860741 12.13629629z m0 208.01611852V876.08888889c0 4.61179259-1.69908148 8.73813333-5.09724445 12.13629629-3.39816297 3.39816297-7.5245037 5.09724445-12.13629629 5.09724445h-104.00805926c-4.61179259 0-8.73813333-1.69908148-12.1362963-5.09724445s-5.09724445-7.5245037-5.09724444-12.13629629v-104.00805926c0-4.61179259 1.69908148-8.73813333 5.09724444-12.1362963s7.5245037-5.09724445 12.1362963-5.09724444H147.91111111c4.61179259 0 8.73813333 1.69908148 12.1362963 5.09724444 3.51952592 3.39816297 5.21860741 7.40314075 5.21860741 12.1362963zM997.45185185 147.91111111v104.00805926c0 4.61179259-1.69908148 8.73813333-5.09724444 12.1362963s-7.5245037 5.09724445-12.1362963 5.09724444h-728.17777778c-4.61179259 0-8.73813333-1.69908148-12.1362963-5.09724444s-5.09724445-7.5245037-5.09724444-12.1362963V147.91111111c0-4.61179259 1.69908148-8.73813333 5.09724444-12.13629629 3.39816297-3.39816297 7.5245037-5.09724445 12.1362963-5.09724445h728.17777778c4.61179259 0 8.73813333 1.69908148 12.1362963 5.09724445 3.39816297 3.39816297 5.09724445 7.5245037 5.09724444 12.13629629z m0 208.13748148v104.00805926c0 4.61179259-1.69908148 8.73813333-5.09724444 12.1362963s-7.5245037 5.09724445-12.1362963 5.09724444h-728.17777778c-4.61179259 0-8.73813333-1.69908148-12.1362963-5.09724444s-5.09724445-7.5245037-5.09724444-12.1362963v-104.00805926c0-4.61179259 1.69908148-8.73813333 5.09724444-12.13629629 3.39816297-3.39816297 7.5245037-5.09724445 12.1362963-5.09724445h728.17777778c4.61179259 0 8.73813333 1.69908148 12.1362963 5.09724445 3.39816297 3.2768 5.09724445 7.40314075 5.09724444 12.13629629z m0 208.01611852v104.00805926c0 4.61179259-1.69908148 8.73813333-5.09724444 12.1362963s-7.5245037 5.09724445-12.1362963 5.09724444h-728.17777778c-4.61179259 0-8.73813333-1.69908148-12.1362963-5.09724444s-5.09724445-7.5245037-5.09724444-12.1362963v-104.00805926c0-4.61179259 1.69908148-8.73813333 5.09724444-12.13629629s7.5245037-5.09724445 12.1362963-5.09724445h728.17777778c4.61179259 0 8.73813333 1.69908148 12.1362963 5.09724445s5.09724445 7.40314075 5.09724444 12.13629629z m0 208.01611852V876.08888889c0 4.61179259-1.69908148 8.73813333-5.09724444 12.13629629s-7.5245037 5.09724445-12.1362963 5.09724445h-728.17777778c-4.61179259 0-8.73813333-1.69908148-12.1362963-5.09724445s-5.09724445-7.5245037-5.09724444-12.13629629v-104.00805926c0-4.61179259 1.69908148-8.73813333 5.09724444-12.1362963s7.5245037-5.09724445 12.1362963-5.09724444h728.17777778c4.61179259 0 8.73813333 1.69908148 12.1362963 5.09724444 3.39816297 3.39816297 5.09724445 7.40314075 5.09724444 12.1362963z" p-id="3982" fill="#606266"></path></svg>