<?xml version="1.0" standalone="no"?><!DOCTYPE svg PUBLIC "-//W3C//DTD SVG 1.1//EN" "http://www.w3.org/Graphics/SVG/1.1/DTD/svg11.dtd"><svg t="1578103833123" class="icon" viewBox="0 0 1024 1024" version="1.1" xmlns="http://www.w3.org/2000/svg" p-id="1099" width="64" height="64" xmlns:xlink="http://www.w3.org/1999/xlink"><defs><style type="text/css"></style></defs><path d="M512 75.09333333C230.92337778 75.09333333 2.27555555 303.74115555 2.27555555 584.81777778c0 114.39672889 37.02784 222.45831111 107.04213334 312.53390222a36.37248 36.37248 0 1 0 57.48963556-44.63729778A432.79246222 432.79246222 0 0 1 75.09333333 584.81777778C75.09333333 343.90016 271.08238222 147.91111111 512 147.91111111s436.90666667 195.98904889 436.90666667 436.90666667c0 98.01272889-31.71214222 190.67335111-91.7504 267.89660444a36.29966222 36.29966222 0 0 0 6.40796444 51.04526223 36.22684445 36.22684445 0 0 0 51.04526222-6.40796445A504.33592889 504.33592889 0 0 0 1021.72444445 584.81777778c0-281.07662222-228.64782222-509.72444445-509.72444445-509.72444445z" p-id="1100" fill="#606266"></path><path d="M512 329.95555555a36.40888889 36.40888889 0 0 0 36.40888889-36.40888888V220.72888889a36.40888889 36.40888889 0 1 0-72.81777778 0v72.81777778a36.40888889 36.40888889 0 0 0 36.40888889 36.40888888zM204.67256889 408.99925333a36.40888889 36.40888889 0 1 0-40.70513778 60.36593778l60.36593778 40.70513778a36.33607111 36.33607111 0 0 0 50.53553778-9.8304 36.40888889 36.40888889 0 0 0-9.8304-50.53553778l-60.36593778-40.70513778zM852.02261333 411.80273778a36.40888889 36.40888889 0 0 0-51.37294222-3.60448l-54.97742222 47.76846222a36.40888889 36.40888889 0 0 0 47.76846222 54.97742222l54.97742222-47.76846222a36.40888889 36.40888889 0 0 0 3.60448-51.37294222zM620.53489778 766.86222222c0-2.94912 0.32768-5.82542222-0.40049778-8.81095111l-72.81777778-291.27111111c-0.40049778-1.6384-1.45635555-2.83989333-2.07530667-4.36906667-0.98304-2.43939555-1.85685333-4.84238222-3.34961777-7.02691555-1.27431111-1.89326222-2.87630222-3.34961778-4.44188445-4.95160889-1.71121778-1.74762667-3.31320889-3.42243555-5.35210666-4.80597334-2.00248889-1.34712889-4.22343111-2.14812445-6.44437334-3.05834666-1.6384-0.69176889-2.98552889-1.82044445-4.80597333-2.25735111-0.58254222-0.14563555-1.12867555 0.03640889-1.71121778-0.07281778-2.33016889-0.47331555-4.69674667-0.32768-7.13614222-0.32768-2.40298667 0-4.76956445-0.14563555-7.09973333 0.32768-0.58254222 0.10922667-1.16508445-0.07281778-1.74762667 0.07281778-1.85685333 0.47331555-3.24039111 1.6384-4.95160889 2.36657777-2.14812445 0.91022222-4.25984 1.67480889-6.22592 2.94912-2.14812445 1.41994667-3.82293333 3.20398222-5.60696889 4.98801778-1.52917333 1.52917333-3.02193778 2.94912-4.25984 4.76956445-1.49276445 2.18453333-2.36657778 4.55111111-3.34961777 6.99050667-0.61895111 1.52917333-1.67480889 2.76707555-2.11171556 4.40547555l-72.81777778 291.27111111c-0.76458667 2.98552889-0.40049778 5.89824-0.40049778 8.81095111H402.77333333c0 1.60199111 0.40049778 3.05834667 0.47331556 4.66033778l0.14563556 1.49276445C406.66908445 830.32291555 453.89141333 876.08888889 512 876.08888889s105.33091555-45.76597333 108.60771555-103.07356444l0.14563556-1.49276445c0.07281778-1.56558222 0.47331555-3.05834667 0.47331556-4.66033778h-0.69176889zM512 803.27111111a36.19043555 36.19043555 0 0 1-35.89916445-33.93308444L512 625.66855111l35.89916445 143.63306667A36.15402667 36.15402667 0 0 1 512 803.27111111z" p-id="1101" fill="#606266"></path></svg>