<?xml version="1.0" standalone="no"?><!DOCTYPE svg PUBLIC "-//W3C//DTD SVG 1.1//EN" "http://www.w3.org/Graphics/SVG/1.1/DTD/svg11.dtd"><svg t="1577859599498" class="icon" viewBox="0 0 1024 1024" version="1.1" xmlns="http://www.w3.org/2000/svg" p-id="4930" width="64" height="64" xmlns:xlink="http://www.w3.org/1999/xlink"><defs><style type="text/css"></style></defs><path d="M953.86906294 180.59820247H235.83183582c-30.37849854 0-55.23363335 24.85513482-55.23363335 55.23363335v718.03722712c0 30.37849854 24.85513482 55.23363335 55.23363335 55.23363336h718.03722712c30.37849854 0 55.23363335-24.85513482 55.23363336-55.23363336V235.83183582c0-30.37849854-24.85513482-55.23363335-55.23363336-55.23363335z m-138.08408144 469.48588026h-165.70089877v165.70089877h-110.46726671v-165.70089877h-165.70089875v-110.46726671h165.70089875v-165.70089875h110.46726671v165.70089875h165.70089877v110.46726671z" p-id="4931" fill="#606266"></path><path d="M70.13093706 70.13093706h662.80359506v55.23363206h55.23363206V70.13093706c0-30.37849854-24.85513482-55.23363335-55.23363206-55.23363336H70.13093706c-30.37849854 0-55.23363335 24.85513482-55.23363336 55.23363336v662.80359506c0 30.37849854 24.85513482 55.23363335 55.23363336 55.23363206h55.23363206v-55.23363206H70.13093706V70.13093706z" p-id="4932" fill="#606266"></path></svg>